<?xml version="1.0" encoding="UTF-8"?>
<svg version="1.1" viewBox="0 0 800 800" width="1280" height="1280" xmlns="http://www.w3.org/2000/svg">
<path transform="translate(0)" d="m0 0h800v800h-800z" fill="#04453F"/>
<path transform="translate(313,246)" d="m0 0h19l10 3 8 6 6 7 3 8 1 7v48l-1 1-18 1-2-1-1-4-1-47-3-5-4-2h-15l-8 3-8 7-9 16-13 24-24 44-10 18-13 24-14 26-6 8-6 5-8 1-9-6-10-10-7-8-16-17-15-16-9-9-3-4-1 163 211-1 1-28 1-1h20l1 1v31l-1 9-4 6-3 3-3 1-224 1-9-1-6-4-5-7-1-3v-187l3-8 8-6h8l16 9 23 16 18 12 13 8 7-2 7-8 16-25 12-19 46-69 4-5 11-8 12-5z" fill="#FBB620"/>
<path transform="translate(105,353)" d="m0 0h2v3l4 2 13 10 1 2 1 15v152l211-1 1-28 1-1h20l1 1v31l-1 9-4 6-3 3-3 1-224 1-9-1-6-4-5-7-1-3v-187z" fill="#FCFBF4"/>
<path transform="translate(281,347)" d="m0 0h19l12 2 8 4 6 8 3 7v15l-5 10-8 7-7 3-6 1h-23v-56z" fill="#FCFAF1"/>
<path transform="translate(296,432)" d="m0 0h8l9 4 3 3 1 3v8l-3 6-4 4h-2l3 5 5 2 1-5 1-2h13l1 3-7 10-2 4 5 6 5 5v2h-15l-4-3-5 2-6 3h-13l-6-3-6-7-1-3v-7l4-8 7-5-5-8v-7l3-6 4-4z" fill="#FBB620"/>
<path transform="translate(185,306)" d="m0 0h8l9 3 9 8 4 9 1 9-3 9-9 10-8 4-3 1h-8l-10-4-6-5-6-12v-12l5-10 8-7z" fill="#FBB620"/>
<path transform="translate(349,256)" d="m0 0 4 2 5 8 2 11v48l-1 1-18 1-2-1-1-4-1-47-3-5-4-2h-15l-8 3-4 1 4-6 10-5 16-4z" fill="#FCF9EE"/>
<path transform="translate(556,433)" d="m0 0 7 1 5 8 18 41 2 6-1 1h-13l-2-2-3-9h-21l-4 10-1 1h-14l1-4 14-32 8-18z" fill="#FCFAF1"/>
<path transform="translate(458,354)" d="m0 0h12l8 4 5 6 2 5v13l-3 7-5 5-8 4h-9l-10-5-4-5-2-4v-15l4-8 7-6z" fill="#044640"/>
<path transform="translate(450,432)" d="m0 0h10l9 4 1 3-7 8-4-2h-10l-3 3 2 5 16 6 6 5 2 6-1 9-6 8-7 4h-16l-8-3-2-2v-5l5-5 5 1 5 2h7l4-3-1-5-19-8-4-5-1-2v-11l3-6 6-5z" fill="#FCF9F0"/>
<path transform="translate(513,347)" d="m0 0 7 1 6 7 11 16 10 15 3 5 1-43 5-1 4 2v53l-1 2h-8l-5-5-10-14-13-20-5-5v44h-7l-1-2v-52z" fill="#FCF6E4"/>
<path transform="translate(502,432)" d="m0 0h11l11 4 2 2-1 5-5 4-6-1-1-1h-12l-4 3h-2l-2 5-1 3v11l4 8 6 4h8l7-4 5 1 6 5-2 4-6 5-13 2-11-2-8-5-7-8-3-8v-15l4-10 7-7 9-4z" fill="#FCFAF1"/>
<path transform="translate(643,347)" d="m0 0 5 1 3 4 21 49-1 4-7-1-5-10-1-3h-26l-4 9-2 4-6 1-2-1 1-7 9-20 10-23 4-6z" fill="#FCF7EA"/>
<path transform="translate(458,346)" d="m0 0h11l11 4 8 7 5 9 1 5v8l-2 9-6 9-8 6-5 2h-17l-7-3-8-7-5-9-1-4v-13l4-10 6-7 9-5zm0 8-6 3-6 7-2 5v15l5 8 8 5 3 1h9l8-4 5-5 3-7v-13l-4-8-8-6-3-1z" fill="#FCF7EA"/>
<path transform="translate(366,433)" d="m0 0 37 1v10l-1 1h-24v11h21l2 1v11h-23v21l-1 1h-12v-56z" fill="#FCF9EF"/>
<path transform="translate(289,355)" d="m0 0h11l10 2 6 4 4 6 1 5v8l-3 8-7 6-6 2-16 1-1-1v-40z" fill="#04453F"/>
<path transform="translate(397,346)" d="m0 0h10l9 3 5 3 1 3-3 4-5-1-6-3h-12l-7 4-5 8-1 3v13l4 8 7 5 3 1h9l11-5h5l1 5-7 6-11 3-12-1-9-5-6-7-4-9-1-11 3-12 6-8 11-6z" fill="#FCF7E8"/>
<path transform="translate(595,434)" d="m0 0h12l1 2-1 43h22l1 1 1 8-1 2h-34l-1-1-1-54z" fill="#FCFCF7"/>
<path transform="translate(655,444)" d="m0 0h6l2 1v16h16l1 8-3 2h-14v16h-10l-1-1v-15h-15l-1-1v-7l2-2h15v-16z" fill="#FBB620"/>
<path transform="translate(411,434)" d="m0 0h12l1 1v55h-12l-1-1z" fill="#FCF8ED"/>
<path transform="translate(574,348)" d="m0 0h43l2 4-2 3-16 1-1 47-2 2-6-1-1-48-17-1-1-1v-5z" fill="#FCFBF4"/>
<path transform="translate(287,460)" d="m0 0 4 1 3 3 2 3h-2l-2 4v6l3 3 6 1 8 8-6 3h-13l-6-3-6-7-1-3v-7l4-8z" fill="#FDC833"/>
<path transform="translate(126,373)" d="m0 0 23 23 7 8 8 8 7 8 16 17 9 6 8-1 8-7 13-24 9-17 2 1-4 10-8 16-8 15-6 5-5 3-1 2h-9l-11-8v-2l-4-2v-2l-4-2v-2l-4-2v-2l-4-2v-2h-2v-2h-2v-2h-2l-2-5h-2l-7-8-1-3-4-2-4-4v-2l-4-2-4-5-6-1z" fill="#082929"/>
<path transform="translate(307,434)" d="m0 0 5 1 4 4 1 3v8l-3 6-4 4h-2v3l-5-1-2-5v-4l-5-2-1-6 4-3 7 1-4-3 2-4h3z" fill="#FDC732"/>
<path transform="translate(282,262)" d="m0 0v3l-36 54-17 26-12 19-6 9-2-4h2l1-5 2-5 5-5 5-8 7-11 4-6 7-10 5-8h2l2-5 10-14 3-5h2l1-5 7-11 3-3z" fill="#082828"/>
<path transform="translate(313,246)" d="m0 0h19l10 3 8 6-1 2h-16v-1l13-1-6-4-8-2h-19l-13 4-9 5-8 8-2 4h-2l-1 4-7 11-4 5-4 7-9 13-4 8-4 5-5 8-6 7-1-2 29-44 18-27 4-5 11-8 12-5z" fill="#FDC732"/>
<path transform="translate(296,432)" d="m0 0h8l3 1v3l-4 2-1 2 4 2 1 2-8-1-3 2 1 6 4 2-1 2-10-3h-3l-1 4-3-5v-7l3-6 4-4z" fill="#FDC833"/>
<path transform="translate(185,306)" d="m0 0h8l9 3 9 8 4 9v5l-2-3v-3h-2l-6-9-8-6-3-1h-12l-8 5h-2l-2 5-3 7v15l3 6v2h2v2l5 2 7 3h8l9-4 8-7 2-1-2 5-8 7-8 3h-8l-10-4-6-5-6-12v-12l5-10 8-7z" fill="#FDC734"/>
<path transform="translate(638,461)" d="m0 0h17l-1 10 3 5v2l3 1v-5l2-1 1 14h-10l-1-1v-15h-15l-1-1v-7z" fill="#FCC22C"/>
<path transform="translate(644,359)" d="m0 0 3 1 7 19 1 4-3 1h-11l-6-1 2-9 6-14z" fill="#044640"/>
<path transform="translate(305,266)" d="m0 0h2l-2 4-3 5-6 8-13 24-13 23-8 16-3 1 1-4 8-16 13-25 3-4 3-7 6-12 2-5 8-7z" fill="#FDC530"/>
<path transform="translate(282,468)" d="m0 0 2 3v3h2l3 5v3h5l2 4-3 4-7-1-5-3-4-7v-7l2 3 1-6z" fill="#FBB721"/>
<path transform="translate(145,353)" d="m0 0 4 3v2h3l2 2 8 5 9 4 9 9 1 2 9 3 5-1 2 1v2l5-3 2 1-6 5-5 1-10-6-18-12-23-16z" fill="#082C2B"/>
<path transform="translate(115,343)" d="m0 0h8l16 9 23 16 30 20-2 1-16-10-13-9-27-18-10-6-7-1-1 4-6 3-1 4h-2l-1-5 4-5z" fill="#FDC631"/>
<path transform="translate(318,460)" d="m0 0h13l1 3-7 10-4 4-4-6-1-7z" fill="#FDC833"/>
<path transform="translate(288,296)" d="m0 0 1 2-3 8h-2l-1 6-1 2h-2l-1 5-12 23-4 7-3 3-3 5-2 1 2-5 12-23 13-23z" fill="#082A29"/>
<path transform="translate(663,461)" d="m0 0h16l1 8-3 2h-8l-4-1 1-5 1-2h-5z" fill="#FDC732"/>
<path transform="translate(294,468)" d="m0 0 5 1 6 6-1 5h-11l-2-3v-6z" fill="#082828"/>
<path transform="translate(318,443)" d="m0 0 2 2v7l-3 12-1 3-5-1-3-3v-3l6-5 2-5z" fill="#082A2A"/>
<path transform="translate(305,266)" d="m0 0h2l-2 4-3 5-6 8-4 7h-3l1-5 3-6 2-5 8-7z" fill="#FDC833"/>
<path transform="translate(165,341)" d="m0 0h2l3 6v2h2v2l5 2 7 3h8l9-4 8-7 2-1-2 5-8 7-8 3h-8l-10-4-6-5-4-7z" fill="#FDC630"/>
<path transform="translate(653,471)" d="m0 0 4 5v2l3 1v-5l2-1 1 14h-10z" fill="#FDC936"/>
<path transform="translate(343,382)" d="m0 0h16l3 1v5h-19l-1-5z" fill="#FCE5A6"/>
<path transform="translate(278,483)" d="m0 0h2l5 6 5 2h13l8-4h4l-1 4-10 3-13 1-10-5-3-5z" fill="#082929"/>
<path transform="translate(179,306)" d="m0 0 3 1-9 5-6 7-3 7v12l3 9-4-4-2-7v-9l3-10 4-6z" fill="#082A29"/>
<path transform="translate(557,452)" d="m0 0h2l5 12v3h-12z" fill="#04403B"/>
<path transform="translate(216,424)" d="m0 0 1 4-6 9-7 6-8 1-9-6-1-3 4 2 2 2 6 2 9-3v-2h2v-2h2l2-6z" fill="#FDC631"/>
<path transform="translate(313,246)" d="m0 0h19l10 3 8 6-1 2h-16v-1l13-1-6-4-8-2h-23l1-2z" fill="#FDC836"/>
<path transform="translate(299,442)" d="m0 0 6 1 1 1-1 7-6 2-4-4 1-5z" fill="#082A29"/>
<path transform="translate(308,247)" d="m0 0 2 1-1 2-11 4-8 5-7 7-2 4h-2l-1 4-3 5-3 1 2-5 8-11 5-5 7-6 11-5z" fill="#FDC630"/>
<path transform="translate(221,357)" d="m0 0 1 2-6 10-4 6-4 7-10 8h-5l1-2 7-3 6-7 13-20z" fill="#FDC530"/>
<path transform="translate(171,313)" d="m0 0 1 3-4 6-1 7-1 12h-2l-1-3v-12l5-10z" fill="#FDC833"/>
<path transform="translate(115,343)" d="m0 0h8l2 2h-8l-1 4-6 3-1 4h-2l-1-5 4-5z" fill="#FDC93A"/>
<path transform="translate(342,387)" d="m0 0 21 1-4 4h-14l-3-3z" fill="#082B2A"/>
<path transform="translate(207,350)" d="m0 0 1 4-8 5-9 2-10-1-7-4 3-1 8 3h8l9-4z" fill="#072D2C"/>
<path transform="translate(330,465)" d="m0 0 2 1-4 9v7l4 2v3l-9-8-1-4 6-7z" fill="#072D2C"/>
<path transform="translate(655,444)" d="m0 0h6l2 1-1 6h-5l-2-1v9l-2 1v-15z" fill="#FDC732"/>
<path transform="translate(641,463)" d="m0 0h11l-1 2h-2v4l-4 2h-5z" fill="#FBB620"/>
<path transform="translate(191,382)" d="m0 0h5l1 3 5-3 2 1-6 5-5 1-6-4 2-2z" fill="#082928"/>
<path transform="translate(315,267)" d="m0 0h15l6 4-1 3v-2l-9-2h-16l1-2z" fill="#082B2A"/>
<path transform="translate(638,461)" d="m0 0 13 1v1h-10l-1 8-4-1v-7z" fill="#FDC735"/>
<path transform="translate(283,441)" d="m0 0 1 3v7l5 9-6 2-1-6v-13z" fill="#082B2A"/>
<path transform="translate(641,471)" d="m0 0h11v15l-2-4-2-6-1-2-6-2z" fill="#092727"/>
<path transform="translate(307,435)" d="m0 0 3 1 1 6h-2v2l-4-2-3-2 2-4z" fill="#FBB620"/>
<path transform="translate(307,270)" d="m0 0 2 1-3 3h-2v2h-2l-1 4h-2l-1 4h-2l-1 4h-2l2-5 6-8z" fill="#082B2A"/>
<path transform="translate(663,471)" d="m0 0h15l-2 2-12 3z" fill="#082727"/>
<path transform="translate(185,306)" d="m0 0h8l1 2-12 1-8 5h-2l2-4 6-3z" fill="#FDC32E"/>
<path transform="translate(236,387)" d="m0 0 1 4-8 14h-2l2-6 5-9z" fill="#FDC631"/>
<path transform="translate(288,296)" d="m0 0 1 2-3 8h-2l-1 6-1 2h-3l2-6z" fill="#082C2B"/>
<path transform="translate(263,290)" d="m0 0 1 2-9 14-2-1 2-4 6-9z" fill="#082A2A"/>
<path transform="translate(266,332)" d="m0 0 1 4-5 10-3 1 1-4 5-10z" fill="#FDC530"/>
<path transform="translate(210,316)" d="m0 0h2l4 7 2 9-1 3-2-4-3-10z" fill="#072E2C"/>
<path transform="translate(246,369)" d="m0 0 1 3-6 11h-2l1-4z" fill="#FDC32E"/>
<path transform="translate(210,344)" d="m0 0 1 2-7 8-5 1 5-5z" fill="#FDC833"/>
<path transform="translate(289,290)" d="m0 0h2l-2 6-4 5-1-3 2-5z" fill="#FDC42E"/>
<path transform="translate(329,485)" d="m0 0 3 1 1 4h-14v-1l9-1z" fill="#FDC731"/>
<path transform="translate(199,353)" d="m0 0m-1 1 3 2-8 3h-8v-1l7-1 2-2z" fill="#FCC12B"/>
</svg>
